<mxfile host="Electron" agent="Mozilla/5.0 (Windows NT 10.0; Win64; x64) AppleWebKit/537.36 (KHTML, like Gecko) draw.io/26.0.16 Chrome/132.0.6834.196 Electron/34.2.0 Safari/537.36" version="26.0.16">
  <diagram name="Pagină-1" id="yfQi2nZRh6jC_jYTf5XR">
    <mxGraphModel dx="2927" dy="1258" grid="1" gridSize="10" guides="1" tooltips="1" connect="1" arrows="1" fold="1" page="1" pageScale="1" pageWidth="827" pageHeight="1169" math="0" shadow="0">
      <root>
        <mxCell id="0" />
        <mxCell id="1" parent="0" />
        <mxCell id="H8Y4i8m6om3aE2TFcVkN-1" value="&lt;b&gt;&lt;font style=&quot;color: light-dark(rgb(16, 15, 15), rgb(205, 205, 255)); font-size: 27px;&quot;&gt;SDLC&lt;/font&gt;&lt;/b&gt;" style="text;html=1;align=center;verticalAlign=middle;whiteSpace=wrap;rounded=0;fillColor=#fff2cc;strokeColor=#d6b656;" parent="1" vertex="1">
          <mxGeometry x="-20" y="760" width="70" height="40" as="geometry" />
        </mxCell>
        <mxCell id="H8Y4i8m6om3aE2TFcVkN-2" value="" style="shape=curlyBracket;whiteSpace=wrap;html=1;rounded=1;labelPosition=left;verticalLabelPosition=middle;align=right;verticalAlign=middle;size=0.5;" parent="1" vertex="1">
          <mxGeometry x="80" y="560" width="20" height="440" as="geometry" />
        </mxCell>
        <mxCell id="H8Y4i8m6om3aE2TFcVkN-3" value="&lt;font style=&quot;font-size: 26px;&quot;&gt;&lt;b style=&quot;&quot;&gt;Comunicare&lt;/b&gt;&amp;nbsp;(utilizatorul inițiază cererea pentru un produs dorit)&lt;/font&gt;" style="text;html=1;align=center;verticalAlign=middle;whiteSpace=wrap;rounded=0;fillColor=#d5e8d4;strokeColor=#82b366;" parent="1" vertex="1">
          <mxGeometry x="100" y="550" width="1530" height="40" as="geometry" />
        </mxCell>
        <mxCell id="H8Y4i8m6om3aE2TFcVkN-4" value="&lt;font style=&quot;font-size: 26px;&quot;&gt;&lt;b style=&quot;&quot;&gt;Colectarea cerințelor&lt;/b&gt;&amp;nbsp;(echipa de dezvoltare încearcă să scoată la iveală cantitatea maximă de informații posibile pentru nevoile lor)&lt;/font&gt;" style="text;html=1;align=center;verticalAlign=middle;whiteSpace=wrap;rounded=0;fillColor=#dae8fc;strokeColor=#6c8ebf;" parent="1" vertex="1">
          <mxGeometry x="100" y="590" width="1530" height="40" as="geometry" />
        </mxCell>
        <mxCell id="H8Y4i8m6om3aE2TFcVkN-5" value="&lt;font style=&quot;font-size: 26px;&quot;&gt;&lt;b style=&quot;&quot;&gt;Studiu de fezabilitate&lt;/b&gt; (se descoperă dacă proiectul este posibil din punct de vedere financiar și tehnologic)&lt;/font&gt;" style="text;html=1;align=center;verticalAlign=middle;whiteSpace=wrap;rounded=0;fillColor=#d5e8d4;strokeColor=#82b366;" parent="1" vertex="1">
          <mxGeometry x="100" y="630" width="1530" height="40" as="geometry" />
        </mxCell>
        <mxCell id="H8Y4i8m6om3aE2TFcVkN-6" value="&lt;font style=&quot;font-size: 26px;&quot;&gt;&lt;b style=&quot;&quot;&gt;Analiza sistemului&lt;/b&gt; (se planifică calendarul și resursele necesare dezvoltării)&amp;nbsp;&lt;/font&gt;" style="text;html=1;align=center;verticalAlign=middle;whiteSpace=wrap;rounded=0;fillColor=#dae8fc;strokeColor=#6c8ebf;" parent="1" vertex="1">
          <mxGeometry x="100" y="670" width="1530" height="40" as="geometry" />
        </mxCell>
        <mxCell id="H8Y4i8m6om3aE2TFcVkN-7" value="&lt;font style=&quot;font-size: 26px;&quot;&gt;&lt;b style=&quot;&quot;&gt;Design software&lt;/b&gt; (se întocmesc: designul fizic, diagrama de secvență, diagrama cazurilor de utilizare)&lt;/font&gt;" style="text;html=1;align=center;verticalAlign=middle;whiteSpace=wrap;rounded=0;fillColor=#d5e8d4;strokeColor=#82b366;" parent="1" vertex="1">
          <mxGeometry x="100" y="710" width="1530" height="40" as="geometry" />
        </mxCell>
        <mxCell id="H8Y4i8m6om3aE2TFcVkN-8" value="&lt;font style=&quot;font-size: 26px;&quot;&gt;&lt;b&gt;Programare/Coding&amp;nbsp;&lt;/b&gt;(programarea propriu-zisă)&lt;/font&gt;" style="text;html=1;align=center;verticalAlign=middle;whiteSpace=wrap;rounded=0;fillColor=#dae8fc;strokeColor=#6c8ebf;" parent="1" vertex="1">
          <mxGeometry x="100" y="750" width="1530" height="40" as="geometry" />
        </mxCell>
        <mxCell id="H8Y4i8m6om3aE2TFcVkN-9" value="&lt;font style=&quot;font-size: 26px;&quot;&gt;&lt;b&gt;Implementare&lt;/b&gt;&amp;nbsp;(instalarea pachetului pe dispozitivele utilizatorilor&lt;/font&gt;&lt;span style=&quot;font-size: 26px; background-color: transparent; color: light-dark(rgb(0, 0, 0), rgb(255, 255, 255));&quot;&gt;)&lt;/span&gt;" style="text;html=1;align=center;verticalAlign=middle;whiteSpace=wrap;rounded=0;fillColor=#d5e8d4;strokeColor=#82b366;" parent="1" vertex="1">
          <mxGeometry x="100" y="870" width="1530" height="40" as="geometry" />
        </mxCell>
        <mxCell id="H8Y4i8m6om3aE2TFcVkN-10" value="&lt;font style=&quot;font-size: 26px;&quot;&gt;&lt;b&gt;Mentenanță&amp;nbsp;&lt;/b&gt;(operațiile de întreținere, reparație și actualizare a sistemului software)&lt;/font&gt;" style="text;html=1;align=center;verticalAlign=middle;whiteSpace=wrap;rounded=0;fillColor=#dae8fc;strokeColor=#6c8ebf;" parent="1" vertex="1">
          <mxGeometry x="100" y="910" width="1530" height="40" as="geometry" />
        </mxCell>
        <mxCell id="H8Y4i8m6om3aE2TFcVkN-11" value="&lt;font style=&quot;font-size: 26px;&quot;&gt;&lt;b style=&quot;&quot;&gt;Dispunere&amp;nbsp;&lt;/b&gt;(închiderea planificată și ordonată a unui sistem devenit învechit sau redundant)&lt;/font&gt;" style="text;html=1;align=center;verticalAlign=middle;whiteSpace=wrap;rounded=0;fillColor=#d5e8d4;strokeColor=#82b366;" parent="1" vertex="1">
          <mxGeometry x="100" y="950" width="1530" height="40" as="geometry" />
        </mxCell>
        <mxCell id="H8Y4i8m6om3aE2TFcVkN-12" value="&lt;font style=&quot;font-size: 26px;&quot;&gt;&lt;b&gt;Integrare&lt;/b&gt; (integrarea software-ului cu bibliotecile, bazele de date și alte programe alternative)&lt;/font&gt;" style="text;html=1;align=center;verticalAlign=middle;whiteSpace=wrap;rounded=0;fillColor=#dae8fc;strokeColor=#6c8ebf;" parent="1" vertex="1">
          <mxGeometry x="100" y="830" width="1530" height="40" as="geometry" />
        </mxCell>
        <mxCell id="H8Y4i8m6om3aE2TFcVkN-13" value="&lt;font style=&quot;font-size: 26px;&quot;&gt;&lt;b style=&quot;&quot;&gt;Testare&lt;/b&gt; (concepția cazurilor de test, execuția testelor, evaluarea rezultatelor testelor)&lt;/font&gt;" style="text;html=1;align=center;verticalAlign=middle;whiteSpace=wrap;rounded=0;fillColor=#d5e8d4;strokeColor=#82b366;" parent="1" vertex="1">
          <mxGeometry x="100" y="790" width="1530" height="40" as="geometry" />
        </mxCell>
        <mxCell id="H8Y4i8m6om3aE2TFcVkN-14" style="edgeStyle=orthogonalEdgeStyle;rounded=0;orthogonalLoop=1;jettySize=auto;html=1;exitX=1;exitY=0.5;exitDx=0;exitDy=0;entryX=0.1;entryY=0.5;entryDx=0;entryDy=0;entryPerimeter=0;" parent="1" source="H8Y4i8m6om3aE2TFcVkN-1" target="H8Y4i8m6om3aE2TFcVkN-2" edge="1">
          <mxGeometry relative="1" as="geometry" />
        </mxCell>
      </root>
    </mxGraphModel>
  </diagram>
</mxfile>
